<?xml version="1.0" encoding="UTF-8"?>
<!-- Generator: Adobe Illustrator 24.3.0, SVG Export Plug-In . SVG Version: 6.00 Build 0)  -->
<svg version="1.1" id="Layer_1" xmlns="http://www.w3.org/2000/svg" xmlns:xlink="http://www.w3.org/1999/xlink" x="0px" y="0px" viewBox="0 0 52.8 52.8" style="enable-background:new 0 0 184 52.8;" xml:space="preserve">
<style type="text/css">
	.st0{enable-background:new    ;}
	.st1{fill:#FFFFFF;}
	.st2{fill:none;stroke:#5E5CCC;stroke-width:4;stroke-linecap:round;stroke-linejoin:round;}
</style>
<g id="Group_6" transform="translate(-41 -12.972)">
	<path id="Path_5" class="st2" d="M58.4,43c1.1-2.3,1.1-5,0-7.3 M58.4,43c-2,4-6.9,5.6-10.9,3.6c-4-2-5.6-6.9-3.6-10.9   c2-4,6.9-5.6,10.9-3.6c1.6,0.8,2.8,2.1,3.6,3.6 M58.4,43l18,9 M58.4,35.8l18-9 M76.4,26.8c2,4,6.9,5.6,10.9,3.6s5.6-6.9,3.6-10.9   c-2-4-6.9-5.6-10.9-3.6C76,17.9,74.4,22.8,76.4,26.8C76.4,26.8,76.4,26.8,76.4,26.8L76.4,26.8z M76.4,52c-2,4-0.4,8.9,3.6,10.9   c4,2,8.9,0.4,10.9-3.6s0.4-8.9-3.6-10.9c0,0,0,0,0,0C83.3,46.4,78.4,48,76.4,52z"/>
</g>
</svg>