<?xml version="1.0" encoding="UTF-8"?>
<!-- Generator: Adobe Illustrator 24.3.0, SVG Export Plug-In . SVG Version: 6.00 Build 0)  -->
<svg version="1.1" id="Layer_1" xmlns="http://www.w3.org/2000/svg" xmlns:xlink="http://www.w3.org/1999/xlink" x="0px" y="0px" viewBox="0 0 184 52.8" style="enable-background:new 0 0 184 52.8;" xml:space="preserve">
<style type="text/css">
	.st0{enable-background:new    ;}
	.st1{fill:none;stroke:#5E5CCC;stroke-width:4;stroke-linecap:round;stroke-linejoin:round;}
</style>
<g id="Group_6" transform="translate(-41 -12.972)">
	<g class="st0">
		<path d="M122.3,38.4c-0.3-1.3-1.4-2.4-3.5-2.4c-1.9,0-3.3,0.9-3.3,2.2c0,1.1,0.8,1.8,2.7,2.2l3.3,0.7c3.6,0.8,5.4,2.4,5.4,5.2    c0,3.6-3.4,6.1-8.2,6.1c-4.7,0-7.6-2.1-8.2-5.6l4.4-0.4c0.4,1.7,1.7,2.6,3.8,2.6c2.1,0,3.6-1,3.6-2.3c0-1.1-0.8-1.8-2.6-2.2    l-3.3-0.7c-3.7-0.8-5.4-2.6-5.4-5.4c0-3.5,3.1-5.8,7.7-5.8c4.5,0,7.1,2.1,7.7,5.3L122.3,38.4z"/>
		<path d="M135,52h-4.5V26.5h4.4v9.6h0.2c0.9-2.2,2.7-3.5,5.7-3.5c4,0,6.6,2.6,6.6,7.2V52h-4.5V40.5c0-2.6-1.4-4.1-3.8-4.1    c-2.4,0-4.1,1.6-4.1,4.4V52z"/>
		<path d="M151.1,46.6c0-4.3,3.5-5.4,7.2-5.8c3.4-0.4,4.7-0.4,4.7-1.7V39c0-1.9-1.1-2.9-3.2-2.9c-2.2,0-3.5,1.1-3.9,2.4l-4.2-0.6    c1-3.5,4.1-5.3,8.1-5.3c3.6,0,7.8,1.5,7.8,6.6V52h-4.3v-2.6h-0.1c-0.8,1.6-2.6,3-5.6,3C153.8,52.4,151.1,50.4,151.1,46.6z     M163.1,45.1v-2.3c-0.6,0.5-2.9,0.8-4.1,0.9c-2,0.3-3.5,1-3.5,2.7c0,1.7,1.3,2.5,3.2,2.5C161.4,49.1,163.1,47.3,163.1,45.1z"/>
		<path d="M172.1,32.9h4.4v3.2h0.2c0.7-2.2,2.5-3.5,4.7-3.5c0.5,0,1.2,0,1.6,0.1v4.1c-0.4-0.1-1.3-0.3-2.1-0.3    c-2.5,0-4.3,1.7-4.3,4.1V52h-4.5V32.9z"/>
		<path d="M184.4,42.6c0-5.9,3.6-9.9,9-9.9c4.7,0,8.7,2.9,8.7,9.7v1.4h-13.3c0,3.3,2,5.2,4.9,5.2c1.9,0,3.4-0.8,4-2.5l4.2,0.5    c-0.8,3.3-3.9,5.5-8.3,5.5C187.9,52.4,184.4,48.6,184.4,42.6z M197.8,40.6c0-2.6-1.8-4.5-4.4-4.5c-2.7,0-4.5,2.1-4.6,4.5H197.8z"/>
		<path d="M205.1,42.6c0-5.9,3.6-9.9,9-9.9c4.7,0,8.7,2.9,8.7,9.7v1.4h-13.3c0,3.3,2,5.2,4.9,5.2c1.9,0,3.4-0.8,4-2.5l4.2,0.5    c-0.8,3.3-3.9,5.5-8.3,5.5C208.6,52.4,205.1,48.6,205.1,42.6z M218.6,40.6c0-2.6-1.8-4.5-4.4-4.5c-2.7,0-4.5,2.1-4.6,4.5H218.6z"/>
	</g>
	<path id="Path_5" class="st1" d="M58.4,43c1.1-2.3,1.1-5,0-7.3 M58.4,43c-2,4-6.9,5.6-10.9,3.6c-4-2-5.6-6.9-3.6-10.9   c2-4,6.9-5.6,10.9-3.6c1.6,0.8,2.8,2.1,3.6,3.6 M58.4,43l18,9 M58.4,35.8l18-9 M76.4,26.8c2,4,6.9,5.6,10.9,3.6s5.6-6.9,3.6-10.9   c-2-4-6.9-5.6-10.9-3.6C76,17.9,74.4,22.8,76.4,26.8C76.4,26.8,76.4,26.8,76.4,26.8L76.4,26.8z M76.4,52c-2,4-0.4,8.9,3.6,10.9   c4,2,8.9,0.4,10.9-3.6s0.4-8.9-3.6-10.9c0,0,0,0,0,0C83.3,46.4,78.4,48,76.4,52z"/>
</g>
</svg>