<svg xmlns="http://www.w3.org/2000/svg" width="184" height="52.839" viewBox="0 0 184 52.839">
  <g id="Group_6" data-name="Group 6" transform="translate(-41 -12.972)">
    <text id="sharee" transform="translate(109 52)" fill="#fff" font-size="35" font-family="Inter-SemiBold, Inter" font-weight="600"><tspan x="0" y="0">sharee</tspan></text>
    <path id="Path_5" data-name="Path 5" d="M18.4,31.026a8.15,8.15,0,0,0,0-7.273m0,7.273a8.129,8.129,0,1,1,0-7.273m0,7.273,17.971,8.986M18.4,23.753l17.971-8.986m0,0A8.13,8.13,0,1,0,40.008,3.859a8.13,8.13,0,0,0-3.635,10.908Zm0,25.244a8.132,8.132,0,1,0,10.91-3.637,8.132,8.132,0,0,0-10.91,3.637Z" transform="translate(39.999 12.001)" fill="none" stroke="#5e5ccc" stroke-linecap="round" stroke-linejoin="round" stroke-width="4"/>
  </g>
</svg>